<svg width="30" height="30" viewBox="0 0 30 30" fill="none" xmlns="http://www.w3.org/2000/svg">
<path d="M23.0357 2.14282C24.3638 2.14282 25.4994 2.61436 26.4425 3.55744C27.3856 4.50052 27.8571 5.63613 27.8571 6.96425V23.0357C27.8571 24.3638 27.3856 25.4994 26.4425 26.4425C25.4994 27.3856 24.3638 27.8571 23.0357 27.8571H19.8884V17.8962H23.2198L23.7221 14.0122H19.8884V11.5346C19.8884 10.9096 20.0195 10.4408 20.2818 10.1283C20.544 9.81581 21.0546 9.65956 21.8136 9.65956L23.856 9.64282V6.17742C23.1529 6.07697 22.1596 6.02675 20.8761 6.02675C19.3582 6.02675 18.1445 6.47318 17.2349 7.36604C16.3253 8.25889 15.8705 9.52005 15.8705 11.1495V14.0122H12.5223V17.8962H15.8705V27.8571H6.96425C5.63613 27.8571 4.50052 27.3856 3.55744 26.4425C2.61436 25.4994 2.14282 24.3638 2.14282 23.0357V6.96425C2.14282 5.63613 2.61436 4.50052 3.55744 3.55744C4.50052 2.61436 5.63613 2.14282 6.96425 2.14282H23.0357Z" fill="#1B355B"/>
</svg>
