<svg width="30" height="30" viewBox="0 0 30 30" fill="none" xmlns="http://www.w3.org/2000/svg">
<path d="M29.91 8.81667C29.8853 7.57212 29.6497 6.34078 29.2133 5.175C28.8362 4.17404 28.2452 3.2674 27.4817 2.51833C26.7326 1.75476 25.826 1.16379 24.825 0.786667C23.6597 0.350436 22.429 0.114877 21.185 0.09C19.5833 0.0166667 19.0733 0 15 0C10.9267 0 10.4167 0.0166667 8.81667 0.09C7.57212 0.11469 6.34078 0.350251 5.175 0.786667C4.17344 1.16358 3.26622 1.75455 2.51667 2.51833C1.75309 3.2674 1.16213 4.17404 0.785 5.175C0.348769 6.34025 0.113211 7.57102 0.0883333 8.815C0.0166666 10.4167 0 10.9267 0 15C0 19.0733 0.0166667 19.5833 0.09 21.1833C0.11469 22.4279 0.350251 23.6592 0.786667 24.825C1.16379 25.826 1.75476 26.7326 2.51833 27.4817C3.26737 28.2453 4.17401 28.8363 5.175 29.2133C6.34025 29.6496 7.57102 29.8851 8.815 29.91C10.4167 29.9833 10.9267 30 15 30C19.0733 30 19.5833 29.9833 21.1833 29.91C22.4279 29.8853 23.6592 29.6497 24.825 29.2133C25.8218 28.828 26.7271 28.2385 27.4828 27.4828C28.2385 26.7271 28.828 25.8218 29.2133 24.825C29.6496 23.6597 29.8851 22.429 29.91 21.185C29.9833 19.5833 30 19.0733 30 15C30 10.9267 29.9833 10.4167 29.91 8.81667ZM27.21 21.0617C27.1985 22.0122 27.0237 22.9537 26.6933 23.845C26.444 24.4922 26.0619 25.08 25.5716 25.5706C25.0813 26.0612 24.4937 26.4436 23.8467 26.6933C22.9548 27.0239 22.0127 27.1987 21.0617 27.21C19.4783 27.2817 19.005 27.2967 15 27.2967C10.995 27.2967 10.52 27.2817 8.93833 27.21C7.98781 27.1985 7.04634 27.0237 6.155 26.6933C5.50281 26.4533 4.91277 26.07 4.42833 25.5717C3.93023 25.0877 3.54695 24.4983 3.30667 23.8467C2.97608 22.9548 2.80131 22.0128 2.79 21.0617C2.71833 19.4783 2.70333 19.005 2.70333 15C2.70333 10.995 2.71833 10.52 2.79 8.93833C2.80153 7.98781 2.9763 7.04634 3.30667 6.155C3.54673 5.50281 3.93003 4.91277 4.42833 4.42833C4.91229 3.93023 5.50174 3.54695 6.15333 3.30667C7.0452 2.97611 7.98725 2.80134 8.93833 2.79C10.5217 2.71833 10.995 2.70333 15 2.70333C19.005 2.70333 19.48 2.71833 21.0617 2.79C22.0122 2.80153 22.9537 2.9763 23.845 3.30667C24.4972 3.54673 25.0872 3.93003 25.5717 4.42833C26.0698 4.91229 26.4531 5.50174 26.6933 6.15333C27.0239 7.0452 27.1987 7.98725 27.21 8.93833C27.2817 10.5217 27.2967 10.995 27.2967 15C27.2967 19.005 27.2817 19.48 27.21 21.0617ZM15 7.29667C13.4764 7.29667 11.9871 7.74846 10.7203 8.59491C9.45345 9.44137 8.46609 10.6445 7.88305 12.0521C7.3 13.4597 7.14745 15.0085 7.44468 16.5028C7.74192 17.9971 8.47559 19.3697 9.55292 20.4471C10.6303 21.5244 12.0029 22.2581 13.4972 22.5553C14.9915 22.8526 16.5403 22.7 17.9479 22.117C19.3555 21.5339 20.5586 20.5465 21.4051 19.2797C22.2515 18.0129 22.7033 16.5236 22.7033 15C22.7033 12.9569 21.8917 10.9976 20.4471 9.55292C19.0024 8.10826 17.0431 7.29667 15 7.29667ZM15 20C14.0111 20 13.0444 19.7068 12.2221 19.1573C11.3999 18.6079 10.759 17.827 10.3806 16.9134C10.0022 15.9998 9.90315 14.9945 10.0961 14.0245C10.289 13.0546 10.7652 12.1637 11.4645 11.4645C12.1637 10.7652 13.0546 10.289 14.0245 10.0961C14.9945 9.90315 15.9998 10.0022 16.9134 10.3806C17.827 10.759 18.6079 11.3999 19.1573 12.2221C19.7068 13.0444 20 14.0111 20 15C20 16.3261 19.4732 17.5979 18.5355 18.5355C17.5979 19.4732 16.3261 20 15 20ZM24.8067 6.99333C24.8067 7.34934 24.7011 7.69735 24.5033 7.99336C24.3055 8.28937 24.0244 8.52008 23.6955 8.65632C23.3666 8.79255 23.0047 8.8282 22.6555 8.75875C22.3063 8.68929 21.9856 8.51786 21.7339 8.26613C21.4821 8.01439 21.3107 7.69366 21.2413 7.3445C21.1718 6.99533 21.2074 6.63341 21.3437 6.3045C21.4799 5.9756 21.7106 5.69447 22.0066 5.49669C22.3026 5.2989 22.6507 5.19333 23.0067 5.19333C23.4841 5.19333 23.9419 5.38298 24.2795 5.72054C24.617 6.05811 24.8067 6.51594 24.8067 6.99333Z" fill="#1B355B"/>
</svg>
