<svg width="80" height="80" viewBox="0 0 80 80" fill="none" xmlns="http://www.w3.org/2000/svg">
<path d="M71.1111 13.3333H8.8889C7.71016 13.3333 6.5797 13.8016 5.74621 14.6351C4.91271 15.4686 4.44446 16.599 4.44446 17.7778V62.2222C4.44446 63.4009 4.91271 64.5314 5.74621 65.3649C6.5797 66.1984 7.71016 66.6666 8.8889 66.6666H42.2222L43.4889 65.1111L45.5556 62.5778L45.3556 62.2222H8.8889V17.7778H71.1111V36.8C72.7994 37.8929 74.3002 39.2511 75.5556 40.8222V17.7778C75.5556 16.599 75.0873 15.4686 74.2538 14.6351C73.4203 13.8016 72.2899 13.3333 71.1111 13.3333Z" fill="#1B355B"/>
<path d="M15.5555 26.6667H53.3333V30.2222H15.5555V26.6667Z" fill="#1B355B"/>
<path d="M15.5555 35.5555H40V39.1111H15.5555V35.5555Z" fill="#1B355B"/>
<path d="M15.5555 51.1111H37.7778V54.6666H15.5555V51.1111Z" fill="#1B355B"/>
<path d="M61.0223 38.289C58.1786 38.2664 55.3942 39.1022 53.033 40.6872C50.6719 42.2721 48.8438 44.5325 47.7876 47.1729C46.7314 49.8133 46.4964 52.7109 47.1131 55.487C47.7298 58.2631 49.1697 60.7886 51.2445 62.7335L46.9334 68.0001L48.9334 76.0224L57.0667 66.1112C59.6413 66.8725 62.3811 66.8725 64.9556 66.1112L73.089 76.0224L75.089 68.0001L70.7779 62.7335C72.8527 60.7886 74.2925 58.2631 74.9093 55.487C75.526 52.7109 75.2909 49.8133 74.2348 47.1729C73.1786 44.5325 71.3505 42.2721 68.9893 40.6872C66.6282 39.1022 63.8438 38.2664 61.0001 38.289H61.0223ZM61.0223 62.0224C59.1339 61.9961 57.2954 61.4121 55.738 60.3438C54.1806 59.2755 52.9737 57.7707 52.2692 56.0184C51.5647 54.2661 51.3939 52.3447 51.7784 50.4956C52.1629 48.6466 53.0855 46.9525 54.4301 45.6263C55.7747 44.3002 57.4814 43.4011 59.3356 43.0422C61.1898 42.6834 63.1087 42.8807 64.851 43.6093C66.5934 44.338 68.0814 45.5655 69.1281 47.1376C70.1747 48.7096 70.7332 50.556 70.7334 52.4446C70.7099 55.0006 69.675 57.4433 67.8551 59.2382C66.0352 61.0332 63.5784 62.0342 61.0223 62.0224Z" fill="#1B355B"/>
</svg>
