<svg width="80" height="80" viewBox="0 0 80 80" fill="none" xmlns="http://www.w3.org/2000/svg">
<path d="M24.1113 60.9777C25.04 60.7783 25.8943 60.323 26.5777 59.6632C27.261 59.0034 27.7461 58.1656 27.9779 57.2444C29.1779 56.9333 30.3335 56.5333 31.5113 56.1111V53.4444C31.5205 53.0633 31.5652 52.6839 31.6446 52.3111C30.3228 52.8444 28.9726 53.3043 27.6001 53.6888C27.1206 52.7396 26.3545 51.9654 25.4104 51.4758C24.4664 50.9862 23.3922 50.8061 22.34 50.9609C21.2879 51.1158 20.3111 51.5978 19.5482 52.3387C18.7852 53.0796 18.2747 54.0417 18.089 55.0888H17.089C13.2013 50.5756 10.9468 44.8846 10.689 38.9333C13.6754 34.7477 17.4496 31.1849 21.8002 28.4444C22.4474 29.1066 23.2673 29.5741 24.1667 29.7941C25.0662 30.014 26.0092 29.9776 26.889 29.6888C29.4963 33.9662 32.8626 37.7317 36.8224 40.8C36.9674 40.6133 37.1233 40.4352 37.289 40.2666L39.4001 38.2444C35.5224 35.352 32.2401 31.7376 29.7335 27.6C30.2372 26.8014 30.5067 25.8775 30.5113 24.9333V24.4444C38.6362 21.7141 47.4308 21.7141 55.5557 24.4444C54.9565 26.9984 54.1003 29.4851 53.0001 31.8666H56.889C57.7144 29.9056 58.3904 27.8851 58.9113 25.8222C59.8668 26.2444 60.7779 26.7333 61.7113 27.2444C62.9845 30.1185 63.737 33.1959 63.9335 36.3333C64.7715 35.8644 65.7075 35.598 66.6668 35.5555C67.1779 35.5656 67.6856 35.6403 68.1779 35.7777C67.7857 29.7835 65.6664 24.031 62.0762 19.2149C58.4859 14.3988 53.5781 10.7251 47.9454 8.63739C42.3128 6.54971 36.1962 6.13735 30.3344 7.45011C24.4725 8.76286 19.116 11.7446 14.9118 16.0352C10.7075 20.3258 7.83537 25.7418 6.6421 31.6292C5.44883 37.5166 5.98549 43.6235 8.18729 49.2125C10.3891 54.8015 14.1618 59.6336 19.05 63.1252C23.9381 66.6168 29.7325 68.6186 35.7335 68.8888C35.1691 67.4611 35.1691 65.8721 35.7335 64.4444C31.6436 64.2024 27.6654 63.0158 24.1113 60.9777ZM37.2446 11.1111C40.8159 11.1165 44.3498 11.8392 47.6365 13.2363C50.9232 14.6335 53.8958 16.6766 56.3779 19.2444C56.3779 19.8 56.3779 20.3777 56.2001 20.9333C47.2745 17.9916 37.6275 18.0775 28.7557 21.1777C28.0014 20.5324 27.0741 20.1228 26.089 20C25.4942 18.1633 25.041 16.2837 24.7335 14.3777C28.57 12.2721 32.8684 11.1497 37.2446 11.1111ZM21.4668 16.3555C21.7542 17.796 22.1177 19.2202 22.5557 20.6222C21.8287 21.0774 21.2292 21.7096 20.8134 22.4598C20.3975 23.2099 20.1788 24.0534 20.1779 24.9111V25.2444C16.8202 27.357 13.7694 29.9218 11.1113 32.8666C12.3562 26.2535 16.0553 20.3555 21.4668 16.3555Z" fill="#1B355B"/>
<path d="M55.5556 47.0888C53.869 47.1065 52.2254 47.6235 50.8324 48.5748C49.4395 49.526 48.3597 50.8688 47.7295 52.4334C47.0992 53.998 46.9468 55.7142 47.2915 57.3654C47.6362 59.0166 48.4625 60.5285 49.666 61.7104C50.8695 62.8922 52.3963 63.6908 54.0534 64.0054C55.7106 64.3199 57.4238 64.1363 58.9767 63.4777C60.5296 62.8191 61.8524 61.715 62.7781 60.305C63.7039 58.895 64.191 57.2422 64.1779 55.5555C64.1428 53.294 63.2182 51.1373 61.6044 49.5526C59.9906 47.9679 57.8174 47.0827 55.5556 47.0888ZM55.5556 60.6C54.578 60.5824 53.6271 60.2773 52.8218 59.7227C52.0164 59.1681 51.3922 58.3886 51.0272 57.4815C50.6621 56.5743 50.5723 55.5798 50.7689 54.6219C50.9656 53.6641 51.44 52.7853 52.1329 52.0954C52.8259 51.4055 53.7067 50.935 54.6654 50.7425C55.6241 50.5501 56.6182 50.6443 57.5238 51.0134C58.4293 51.3824 59.206 52.01 59.7571 52.8178C60.3081 53.6256 60.6091 54.5778 60.6223 55.5555C60.6253 56.2207 60.4961 56.8798 60.2422 57.4946C59.9884 58.1094 59.6149 58.6677 59.1436 59.137C58.6722 59.6063 58.1123 59.9773 57.4964 60.2284C56.8805 60.4796 56.2208 60.6058 55.5556 60.6Z" fill="#1B355B"/>
<path d="M75.9334 53.6444C75.9551 53.1267 75.8177 52.6149 75.5396 52.1778C75.2614 51.7407 74.8559 51.3994 74.3778 51.1999L70.9111 50.1777C70.7482 49.7036 70.5556 49.237 70.3334 48.7777L71.9334 45.8221C72.1847 45.3413 72.2751 44.7924 72.1911 44.2563C72.1071 43.7202 71.8531 43.2253 71.4667 42.8444L68.4889 39.911C68.1054 39.5282 67.6092 39.2784 67.0732 39.1985C66.5373 39.1185 65.9898 39.2124 65.5111 39.4666L62.5334 41.0444C62.0477 40.8123 61.5508 40.6047 61.0445 40.4221L60 37.1332C59.8248 36.6375 59.4995 36.2085 59.0695 35.9059C58.6394 35.6033 58.1259 35.442 57.6 35.4444H53.3334C52.7966 35.4482 52.2749 35.6224 51.8435 35.942C51.4122 36.2615 51.0935 36.7098 50.9334 37.2221L49.9556 40.3999C49.4418 40.5819 48.9374 40.7895 48.4445 41.0221L45.5111 39.4666C45.0373 39.2149 44.4957 39.1202 43.9646 39.1961C43.4334 39.2719 42.94 39.5145 42.5556 39.8888L39.5111 42.7999C39.1197 43.1825 38.8627 43.6815 38.7786 44.2223C38.6945 44.7631 38.7878 45.3166 39.0445 45.7999L40.6 48.6444C40.363 49.1184 40.1556 49.5999 39.9778 50.0888L36.8445 51.111C36.3225 51.2652 35.8647 51.5847 35.54 52.0216C35.2154 52.4585 35.0415 52.989 35.0445 53.5333V57.6888C35.0697 58.2158 35.2589 58.7218 35.5856 59.1361C35.9122 59.5504 36.3601 59.8524 36.8667 59.9999L40.1334 60.9777C40.3111 61.4518 40.5185 61.9258 40.7556 62.3999L39.1556 65.3999C38.8961 65.881 38.7992 66.4331 38.8793 66.9738C38.9594 67.5145 39.2122 68.0147 39.6 68.3999L42.5778 71.3332C42.9613 71.7161 43.4575 71.9658 43.9935 72.0458C44.5295 72.1258 45.077 72.0318 45.5556 71.7777L48.6 70.1777C49.0593 70.3851 49.526 70.5777 50 70.7555L50.9778 74.0221C51.139 74.5381 51.4611 74.989 51.8969 75.3089C52.3327 75.6287 52.8594 75.8008 53.4 75.7999H57.6223C58.1552 75.7914 58.6719 75.615 59.0989 75.2958C59.5258 74.9767 59.8411 74.5309 60 74.0221L60.9778 70.7555C61.4445 70.5999 61.9111 70.3999 62.3556 70.1999L65.4223 71.8221C65.8984 72.071 66.4413 72.1621 66.9726 72.0822C67.5038 72.0023 67.9959 71.7556 68.3778 71.3777L71.3556 68.4444C71.747 68.0618 72.004 67.5628 72.0881 67.022C72.1722 66.4812 72.079 65.9277 71.8223 65.4444L70.2 62.4666C70.4074 62.0221 70.5926 61.5777 70.7556 61.1332L74.0889 60.1555C74.6119 60.0115 75.0743 59.7021 75.4068 59.2735C75.7393 58.8448 75.924 58.3201 75.9334 57.7777V53.6444ZM72.3778 56.9777L67.9334 58.2666L67.6667 59.1999C67.4203 60.0405 67.0851 60.8525 66.6667 61.6221L66.2 62.4666L68.4223 66.4444L66.5111 68.311L62.4667 66.0888L61.6445 66.5333C60.8529 66.9602 60.0187 67.3028 59.1556 67.5555L58.2223 67.8221L56.9111 72.2666H54.1778L52.8667 67.9332L51.9334 67.6666C51.0639 67.4213 50.2223 67.0861 49.4223 66.6666L48.6 66.2221L44.5778 68.4444L42.6667 66.5555L44.8889 62.511L44.4 61.6666C43.9458 60.8721 43.5807 60.03 43.3111 59.1555L43.0223 58.2444L38.6889 56.9555V54.2666L43 52.9777L43.2667 52.0666C43.5335 51.184 43.8987 50.3342 44.3556 49.5333L44.8445 48.6666L42.6223 44.8221L44.5556 42.9555L48.4889 45.0444L49.3334 44.5777C50.1576 44.1208 51.0295 43.7556 51.9334 43.4888L52.8445 43.2221L54.1556 38.9777H56.8889L58.1778 43.1999L59.0889 43.4666C59.9843 43.7277 60.8486 44.0853 61.6667 44.5333L62.5111 44.9999L66.5111 42.8888L68.4223 44.7777L66.2 48.711L66.6667 49.5555C67.1067 50.3513 67.457 51.1935 67.7111 52.0666L67.9778 52.9999L72.2667 54.2666L72.3778 56.9777Z" fill="#1B355B"/>
</svg>
