<svg width="30" height="31" viewBox="0 0 30 31" fill="none" xmlns="http://www.w3.org/2000/svg">
<path d="M15 3.25342C8.1 3.25342 2.5 8.84393 2.5 15.7322C2.5 22.6205 8.1 28.211 15 28.211H21.25V25.7153H15C9.575 25.7153 5 21.148 5 15.7322C5 10.3164 9.575 5.74918 15 5.74918C20.425 5.74918 25 10.3164 25 15.7322V17.5167C25 18.5025 24.1125 19.4759 23.125 19.4759C22.1375 19.4759 21.25 18.5025 21.25 17.5167V15.7322C21.25 12.2881 18.45 9.49283 15 9.49283C11.55 9.49283 8.75 12.2881 8.75 15.7322C8.75 19.1764 11.55 21.9716 15 21.9716C16.725 21.9716 18.3 21.2728 19.425 20.1373C20.2375 21.2479 21.6375 21.9716 23.125 21.9716C25.5875 21.9716 27.5 19.975 27.5 17.5167V15.7322C27.5 8.84393 21.9 3.25342 15 3.25342ZM15 19.4759C12.925 19.4759 11.25 17.8037 11.25 15.7322C11.25 13.6608 12.925 11.9886 15 11.9886C17.075 11.9886 18.75 13.6608 18.75 15.7322C18.75 17.8037 17.075 19.4759 15 19.4759Z" fill="#9D9D9D"/>
</svg>
