<svg width="80" height="80" viewBox="0 0 80 80" fill="none" xmlns="http://www.w3.org/2000/svg">
<path d="M63.3333 6.70001H20C15.98 6.70001 10 9.36335 10 16.7V63.3667C10 70.7033 15.98 73.3667 20 73.3667H70V66.7H20.04C18.5 66.66 16.6667 66.05 16.6667 63.3667C16.6667 63.03 16.6967 62.73 16.7467 62.4567C17.12 60.54 18.69 60.0667 20.0367 60.0333H66.6667C66.7267 60.0333 66.77 60.0033 66.83 60H70V13.3667C70 9.69001 67.01 6.70001 63.3333 6.70001ZM63.3333 53.3667H16.6667V16.7C16.6667 14.0133 18.5 13.4067 20 13.3667H43.3333V36.7L50 33.3667L56.6667 36.7V13.3667H63.3333V53.3667Z" fill="#1B355B"/>
</svg>
