<svg width="40" height="40" viewBox="0 0 40 40" fill="none" xmlns="http://www.w3.org/2000/svg">
<path d="M19.984 3.33325C10.784 3.33325 3.33398 10.7999 3.33398 19.9999C3.33398 29.1999 10.784 36.6666 19.984 36.6666C29.2007 36.6666 36.6673 29.1999 36.6673 19.9999C36.6673 10.7999 29.2007 3.33325 19.984 3.33325ZM20.0007 33.3333C12.634 33.3333 6.66732 27.3666 6.66732 19.9999C6.66732 12.6333 12.634 6.66659 20.0007 6.66659C27.3673 6.66659 33.334 12.6333 33.334 19.9999C33.334 27.3666 27.3673 33.3333 20.0007 33.3333Z" fill="#1B355B"/>
<path d="M20.834 11.6667H18.334V21.6667L27.084 26.9167L28.334 24.8667L20.834 20.4167V11.6667Z" fill="#1B355B"/>
</svg>
