<svg width="30" height="31" viewBox="0 0 30 31" fill="none" xmlns="http://www.w3.org/2000/svg">
<path d="M8.275 14.0511C10.075 17.5826 12.975 20.4652 16.5125 22.2746L19.2625 19.5293C19.6 19.1923 20.1 19.08 20.5375 19.2298C21.9375 19.6915 23.45 19.9411 25 19.9411C25.6875 19.9411 26.25 20.5026 26.25 21.189V25.5441C26.25 26.2304 25.6875 26.7919 25 26.7919C13.2625 26.7919 3.75 17.2956 3.75 5.57796C3.75 4.89162 4.3125 4.33008 5 4.33008H9.375C10.0625 4.33008 10.625 4.89162 10.625 5.57796C10.625 7.13781 10.875 8.63527 11.3375 10.0329C11.475 10.4697 11.375 10.9563 11.025 11.3057L8.275 14.0511Z" fill="#9D9D9D"/>
</svg>
