<svg width="50" height="34" viewBox="0 0 50 34" fill="none" xmlns="http://www.w3.org/2000/svg">
<path fill-rule="evenodd" clip-rule="evenodd" d="M2.60417 8.85425H4.375L6.875 14.6876H5.3125L4.79167 13.5417H2.08333L1.5625 14.7917H0L2.60417 8.85425ZM3.02086 11.0416L2.50003 12.3958H4.37503L3.85419 11.0416L3.43753 10.1041L3.02086 11.0416Z" fill="#9D9D9D"/>
<path d="M13.125 10.0001L12.8125 10.8334L11.4583 14.6876H10.2083L8.85417 10.8334L8.54167 10.0001V14.6876H7.1875V8.85425H9.47917L10.625 12.2917L10.8333 12.9167L11.0417 12.2917L12.1875 8.85425H14.4792V14.6876H13.125V10.0001Z" fill="#9D9D9D"/>
<path d="M16.9792 10.1042V11.1459H20.2083V12.3959H16.9792V13.4376H20.3125V14.6876H15.625V8.85425H20.3125V10.1042H16.9792Z" fill="#9D9D9D"/>
<path fill-rule="evenodd" clip-rule="evenodd" d="M26.5625 10.7292C26.6667 11.6667 25.9375 12.5001 25 12.6042L26.875 14.6876H25.1042L23.3333 12.6042H22.7083V14.6876H21.25V8.85423H24.4792C25.5208 8.6459 26.4583 9.37507 26.5625 10.4167V10.7292ZM24.375 10.1041H22.7083H22.6042V11.3541H24.2708C24.5833 11.3541 24.8958 11.1458 25 10.8333V10.7291C25 10.5208 25 10.4166 24.8958 10.3124L24.7917 10.2083C24.7396 10.2083 24.7136 10.1822 24.6875 10.1562C24.6615 10.1302 24.6354 10.1041 24.5833 10.1041H24.4792H24.375Z" fill="#9D9D9D"/>
<rect x="27.1875" y="8.85425" width="1.45833" height="5.83333" fill="#9D9D9D"/>
<path d="M32.2916 8.85417H33.9583V10.1042H32.3958C31.5624 10.1042 30.9374 10.7292 30.8333 11.4583C30.8333 11.5625 30.8333 11.6667 30.8333 11.6667V11.7708C30.7291 12.6042 31.2499 13.3333 32.0833 13.4375C32.1874 13.4375 32.2916 13.4375 32.2916 13.4375H32.7083L32.2916 14.6875H32.1874C30.7291 14.7917 29.4791 13.6458 29.4791 12.1875C29.4791 12.0833 29.4791 11.875 29.4791 11.7708V11.6667C29.3749 10.2083 30.4166 8.95833 31.8749 8.75C31.9791 8.85417 32.1874 8.85417 32.2916 8.85417Z" fill="#9D9D9D"/>
<path fill-rule="evenodd" clip-rule="evenodd" d="M35.5209 8.85425H37.3959L40 14.6876H38.4375L37.9167 13.5417H35.1042L34.5834 14.7917H33.0209L35.5209 8.85425ZM36.0417 11.0416L35.5209 12.3958H37.3959L36.7709 11.0416L36.4584 10.1041L36.0417 11.0416Z" fill="#9D9D9D"/>
<path d="M41.5624 14.7917H40.2083V8.85425H41.8749L43.9583 11.9792L44.3749 12.6042V8.85425H45.8333V14.6876H44.0624L41.9791 11.4584L41.5624 10.8334V14.7917Z" fill="#9D9D9D"/>
<path d="M11.9792 21.25V22.2917H15.3125V23.4375H11.9792V24.4792H15.3125V25.7292H10.625V20H15.3125V21.25H11.9792Z" fill="#9D9D9D"/>
<path d="M15.625 25.8333L17.9167 22.9167L15.5209 20H17.2917L18.75 21.7708L20.2084 20H21.875L19.5834 22.9167L21.9792 25.8333H20.2084L18.75 23.9583L17.2917 25.8333H15.625Z" fill="#9D9D9D"/>
<path fill-rule="evenodd" clip-rule="evenodd" d="M25.4167 19.9999C26.4583 19.8957 27.3958 20.6249 27.5 21.6666C27.5 21.7707 27.5 21.8749 27.3958 21.8749C27.3958 22.9166 26.5625 23.8541 25.5208 23.8541H25.3125H23.5417V25.8332H22.1875V19.9999H25.4167ZM23.6458 22.6042H25.3125C25.7292 22.6042 26.0417 22.2917 26.0417 21.8751C26.0417 21.4584 25.7292 21.1459 25.3125 21.1459H23.6458V22.6042Z" fill="#9D9D9D"/>
<path fill-rule="evenodd" clip-rule="evenodd" d="M33.5416 21.5625C33.6458 22.6042 32.9166 23.5417 31.875 23.6459L33.75 25.7292H31.9791L30.2083 23.6459H29.5833V25.7292H28.2291V19.8959H31.4583C32.5 19.7917 33.4375 20.5209 33.5416 21.5625ZM29.6875 22.5002H31.3542C31.6667 22.6043 31.9792 22.2918 32.0833 21.9793V21.8752C32.0833 21.5627 31.7708 21.2502 31.4583 21.2502H31.3542H29.6875V22.5002Z" fill="#9D9D9D"/>
<path d="M35.625 21.25V22.2917H38.8541V23.4375H35.625V24.4792H38.9583V25.7292H34.1666V20H38.9583L38.8541 21.25H35.625Z" fill="#9D9D9D"/>
<path d="M43.3334 24.1668C43.4376 23.8543 43.2292 23.646 42.9167 23.5418C42.8126 23.5418 42.8126 23.5418 42.7084 23.5418H41.3542C40.4167 23.646 39.6876 23.021 39.4792 22.0835C39.4792 21.9793 39.4792 21.8752 39.4792 21.771C39.4792 20.7293 40.3126 19.896 41.2501 19.896C41.3542 19.896 41.4584 19.896 41.4584 19.896H44.4792L43.9584 21.146H41.4584C41.1459 21.0418 40.9376 21.2502 40.8334 21.5627C40.7292 21.8752 40.9376 22.0835 41.2501 22.1877C41.3542 22.1877 41.3542 22.1877 41.4584 22.1877H42.8126C43.6459 22.0835 44.4792 22.7085 44.6876 23.5418C44.6876 23.646 44.6876 23.7502 44.6876 23.8543C44.6876 24.896 43.9584 25.7293 42.9167 25.7293C42.8126 25.7293 42.8126 25.7293 42.7084 25.7293H39.6876V24.4793H42.7084C43.0209 24.6877 43.2292 24.4793 43.3334 24.1668Z" fill="#9D9D9D"/>
<path d="M50 18.6458H19.6875L18.75 19.8958L17.9167 18.6458H9.27083V27.1875H17.9167L18.8542 25.9375L19.6875 27.1875H24.8958V25.3125H25.5208C26.0417 25.3125 26.5625 25.2083 27.0833 25.1042V27.2917H30.625V25.7292L31.875 27.2917H48.125C48.75 27.2917 49.4792 27.0833 50 26.7708V24.7917C49.6875 25.625 48.9583 26.0417 48.125 25.9375H45.1042V24.6875H48.125C48.4375 24.7917 48.6458 24.5833 48.75 24.2708C48.8542 23.9583 48.6458 23.75 48.3333 23.6458C48.2292 23.6458 48.2292 23.6458 48.125 23.6458H46.7708C45.8333 23.75 45.1042 23.125 44.8958 22.1875C44.8958 22.0833 44.8958 21.9792 44.8958 21.875C44.8958 20.8333 45.625 20 46.6667 20C46.7708 20 46.875 20 46.875 20H50V29.1667C50 31.4583 48.125 33.3333 45.8333 33.3333H4.16667C1.875 33.3333 0 31.4583 0 29.1667V16.0417H2.39583L2.91667 14.7917H4.0625L4.58333 16.0417H23.6458V14.4792L24.8958 16.0417H29.8958V15.3125C30.625 15.8333 31.4583 16.1458 32.3958 16.0417H35.4167L35.9375 14.7917H37.0833L37.6042 16.0417H42.7083V14.375L43.75 16.0417H47.2917V7.5H43.5417V9.27083L42.3958 7.5H39.1667V9.6875L38.125 7.5H32.6042C31.6667 7.5 30.7292 7.8125 30 8.33333V7.5H11.4583L10.8333 9.375L10.2083 7.5H6.04167V9.6875L5.10417 7.5H1.66667L0 11.4583V4.16667C0 1.875 1.875 0 4.16667 0H45.8333C48.125 0 50 1.875 50 4.16667V18.6458Z" fill="#9D9D9D"/>
<path fill-rule="evenodd" clip-rule="evenodd" d="M24.375 11.3541C24.6875 11.4583 25 11.2499 25.1042 10.8333C25 11.1458 24.6875 11.4583 24.375 11.3541Z" fill="white"/>
<path d="M49.4792 21.25H46.875C46.5625 21.1458 46.3542 21.3542 46.25 21.6667C46.1458 21.9792 46.3542 22.1875 46.6667 22.2917C46.7708 22.2917 46.7708 22.2917 46.875 22.2917H48.2292C48.9583 22.1875 49.5833 22.6042 49.8958 23.2292V20L49.4792 21.25Z" fill="white"/>
</svg>
