<svg width="63" height="51" viewBox="0 0 63 51" fill="none" xmlns="http://www.w3.org/2000/svg">
<path fill-rule="evenodd" clip-rule="evenodd" d="M10.1667 0H51.8333C54.1345 0 56 1.86548 56 4.16667V29.1667C56 31.4679 54.1345 33.3333 51.8333 33.3333H10.1667C7.86548 33.3333 6 31.4679 6 29.1667V4.16667C6 1.86548 7.86548 0 10.1667 0ZM29.1458 26.521C26.318 24.0256 24.6949 20.4382 24.6875 16.6668C24.6704 12.8901 26.2978 9.29303 29.1458 6.81262C24.4964 4.45143 18.8291 5.66131 15.5492 9.71531C12.2694 13.7693 12.2694 19.5643 15.5492 23.6183C18.8291 27.6723 24.4964 28.8821 29.1458 26.521ZM31 7.97892C33.6645 10.0744 35.2201 13.2766 35.2201 16.6664C35.2201 20.0562 33.6645 23.2585 31 25.3539C28.3318 23.2608 26.7734 20.0577 26.7734 16.6664C26.7734 13.2752 28.3318 10.0721 31 7.97892ZM32.8542 26.521C34.3979 27.3018 36.1035 27.7086 37.8334 27.7085C42.3982 27.7008 46.4876 24.8849 48.1232 20.6232C49.7589 16.3615 48.6034 11.5327 45.2159 8.47289C41.8284 5.41313 36.9073 4.75332 32.8334 6.81267C33.4458 7.33146 34.0042 7.91079 34.5001 8.54184C38.7936 14.0268 38.0722 21.9068 32.8542 26.521Z" fill="#9D9D9D"/>
<g opacity="0.01">
<path fill-rule="evenodd" clip-rule="evenodd" d="M10.8438 29.9999V3.33325H51.1562V29.9999H10.8438ZM14.8271 10.7105C11.7674 15.5131 12.8619 21.8548 17.3542 25.3541C20.7216 28.0076 25.3238 28.463 29.1459 26.5208C26.3181 24.0254 24.695 20.438 24.6876 16.6666C24.6757 12.8866 26.311 9.28895 29.1667 6.81242C24.0968 4.21978 17.8867 5.90793 14.8271 10.7105ZM31 25.3539C28.3318 23.2608 26.7734 20.0577 26.7734 16.6664C26.7734 13.2752 28.3318 10.0721 31 7.97892C33.6645 10.0744 35.2201 13.2766 35.2201 16.6664C35.2201 20.0562 33.6645 23.2585 31 25.3539ZM32.8542 26.521C34.3979 27.3018 36.1035 27.7086 37.8334 27.7085C42.3982 27.7008 46.4876 24.8849 48.1232 20.6232C49.7589 16.3615 48.6034 11.5327 45.2159 8.47289C41.8284 5.41313 36.9073 4.75332 32.8334 6.81267C33.4458 7.33146 34.0042 7.91079 34.5001 8.54184C38.7936 14.0268 38.0722 21.9068 32.8542 26.521Z" fill="#9D9D9D"/>
</g>
<path fill-rule="evenodd" clip-rule="evenodd" d="M47.6042 23.1564V23.0835H47.9688V23.1564H47.8125V23.5106H47.75V23.1564H47.6042ZM48.2814 23.3856L48.4168 23.0835H48.521V23.5106H48.448V23.1877L48.3335 23.4689H48.2501L48.1251 23.1877V23.5106H48.0418V23.0835H48.1564L48.2814 23.3856Z" fill="#9D9D9D"/>
<path d="M8.49263 38.48C8.75663 38.48 8.96863 38.568 9.12863 38.744C9.29663 38.912 9.38063 39.132 9.38063 39.404V46.22C9.38063 46.484 9.30463 46.692 9.15263 46.844C9.00063 46.996 8.80063 47.072 8.55263 47.072C8.31263 47.072 8.11663 46.996 7.96463 46.844C7.81263 46.692 7.73663 46.484 7.73663 46.22V41.984L6.03263 45.188C5.92063 45.396 5.79663 45.548 5.66063 45.644C5.53263 45.74 5.37663 45.788 5.19263 45.788C5.01663 45.788 4.86063 45.74 4.72463 45.644C4.58863 45.548 4.46463 45.396 4.35263 45.188L2.64863 42.044V46.22C2.64863 46.476 2.57263 46.684 2.42063 46.844C2.26863 46.996 2.06863 47.072 1.82063 47.072C1.58063 47.072 1.38463 46.996 1.23263 46.844C1.08063 46.692 1.00463 46.484 1.00463 46.22V39.404C1.00463 39.132 1.08463 38.912 1.24463 38.744C1.41263 38.568 1.62863 38.48 1.89263 38.48C2.27663 38.48 2.56863 38.684 2.76863 39.092L5.20463 43.712L7.62863 39.092C7.84463 38.684 8.13263 38.48 8.49263 38.48ZM13.5902 40.964C14.4542 40.964 15.0942 41.176 15.5102 41.6C15.9262 42.016 16.1342 42.656 16.1342 43.52V46.232C16.1342 46.496 16.0582 46.704 15.9062 46.856C15.7542 47 15.5422 47.072 15.2702 47.072C15.0142 47.072 14.8062 46.996 14.6462 46.844C14.4942 46.684 14.4182 46.48 14.4182 46.232V46.148C14.2982 46.444 14.0982 46.676 13.8182 46.844C13.5382 47.012 13.2102 47.096 12.8342 47.096C12.4342 47.096 12.0702 47.016 11.7422 46.856C11.4222 46.696 11.1662 46.472 10.9742 46.184C10.7902 45.896 10.6982 45.576 10.6982 45.224C10.6982 44.792 10.8062 44.452 11.0222 44.204C11.2462 43.956 11.6022 43.776 12.0902 43.664C12.5782 43.552 13.2462 43.496 14.0942 43.496H14.4062V43.28C14.4062 42.944 14.3302 42.7 14.1782 42.548C14.0342 42.396 13.7902 42.32 13.4462 42.32C13.1022 42.32 12.6062 42.44 11.9582 42.68C11.7742 42.768 11.6182 42.812 11.4902 42.812C11.3142 42.812 11.1742 42.752 11.0702 42.632C10.9662 42.504 10.9142 42.34 10.9142 42.14C10.9142 41.98 10.9502 41.848 11.0222 41.744C11.0942 41.64 11.2102 41.544 11.3702 41.456C11.6502 41.304 11.9902 41.184 12.3902 41.096C12.7982 41.008 13.1982 40.964 13.5902 40.964ZM13.2302 45.848C13.5822 45.848 13.8662 45.732 14.0822 45.5C14.2982 45.26 14.4062 44.952 14.4062 44.576V44.372H14.2022C13.5542 44.372 13.0982 44.424 12.8342 44.528C12.5782 44.632 12.4502 44.82 12.4502 45.092C12.4502 45.316 12.5222 45.5 12.6662 45.644C12.8182 45.78 13.0062 45.848 13.2302 45.848ZM19.721 47.096C19.233 47.096 18.809 47.056 18.449 46.976C18.089 46.896 17.773 46.768 17.501 46.592C17.381 46.52 17.289 46.424 17.225 46.304C17.161 46.184 17.129 46.048 17.129 45.896C17.129 45.712 17.181 45.56 17.285 45.44C17.389 45.312 17.517 45.248 17.669 45.248C17.773 45.248 17.877 45.268 17.981 45.308C18.085 45.34 18.193 45.38 18.305 45.428C18.529 45.532 18.749 45.616 18.965 45.68C19.181 45.736 19.449 45.764 19.769 45.764C20.049 45.764 20.265 45.72 20.417 45.632C20.577 45.544 20.657 45.424 20.657 45.272C20.657 45.16 20.621 45.072 20.549 45.008C20.485 44.936 20.361 44.872 20.177 44.816C19.993 44.76 19.701 44.692 19.301 44.612C18.589 44.476 18.077 44.272 17.765 44C17.453 43.728 17.297 43.348 17.297 42.86C17.297 42.5 17.405 42.176 17.621 41.888C17.845 41.6 18.149 41.376 18.533 41.216C18.917 41.048 19.349 40.964 19.829 40.964C20.173 40.964 20.509 41.008 20.837 41.096C21.165 41.184 21.457 41.308 21.713 41.468C21.961 41.62 22.085 41.844 22.085 42.14C22.085 42.332 22.033 42.492 21.929 42.62C21.825 42.748 21.697 42.812 21.545 42.812C21.361 42.812 21.141 42.74 20.885 42.596C20.685 42.492 20.501 42.416 20.333 42.368C20.173 42.312 19.981 42.284 19.757 42.284C19.509 42.284 19.313 42.332 19.169 42.428C19.025 42.516 18.953 42.64 18.953 42.8C18.953 42.968 19.037 43.096 19.205 43.184C19.373 43.272 19.697 43.36 20.177 43.448C20.713 43.552 21.133 43.68 21.437 43.832C21.741 43.976 21.961 44.16 22.097 44.384C22.233 44.608 22.301 44.892 22.301 45.236C22.301 45.804 22.065 46.256 21.593 46.592C21.129 46.928 20.505 47.096 19.721 47.096ZM26.554 45.752C26.794 45.768 26.97 45.828 27.082 45.932C27.194 46.036 27.25 46.188 27.25 46.388C27.25 46.62 27.158 46.796 26.974 46.916C26.79 47.036 26.526 47.084 26.182 47.06L25.846 47.036C24.446 46.924 23.746 46.192 23.746 44.84V42.464H23.266C23.002 42.464 22.802 42.408 22.666 42.296C22.53 42.176 22.462 42.008 22.462 41.792C22.462 41.568 22.53 41.4 22.666 41.288C22.802 41.168 23.002 41.108 23.266 41.108H23.746V40.172C23.746 39.908 23.826 39.7 23.986 39.548C24.154 39.396 24.378 39.32 24.658 39.32C24.938 39.32 25.158 39.396 25.318 39.548C25.478 39.7 25.558 39.908 25.558 40.172V41.108H26.398C26.942 41.108 27.214 41.336 27.214 41.792C27.214 42.008 27.146 42.176 27.01 42.296C26.874 42.408 26.67 42.464 26.398 42.464H25.558V44.972C25.558 45.212 25.614 45.396 25.726 45.524C25.838 45.644 26.002 45.712 26.218 45.728L26.554 45.752ZM32.6467 45.248C32.8067 45.248 32.9347 45.312 33.0307 45.44C33.1347 45.568 33.1867 45.732 33.1867 45.932C33.1867 46.068 33.1467 46.196 33.0667 46.316C32.9867 46.428 32.8747 46.524 32.7307 46.604C32.4587 46.748 32.1427 46.868 31.7827 46.964C31.4227 47.052 31.0907 47.096 30.7867 47.096C30.1467 47.096 29.5867 46.972 29.1067 46.724C28.6347 46.476 28.2707 46.124 28.0147 45.668C27.7587 45.204 27.6307 44.66 27.6307 44.036C27.6307 43.436 27.7547 42.904 28.0027 42.44C28.2507 41.976 28.5947 41.616 29.0347 41.36C29.4747 41.096 29.9747 40.964 30.5347 40.964C31.0707 40.964 31.5387 41.084 31.9387 41.324C32.3467 41.556 32.6627 41.892 32.8867 42.332C33.1107 42.764 33.2227 43.272 33.2227 43.856C33.2227 44.032 33.1787 44.168 33.0907 44.264C33.0107 44.352 32.8947 44.396 32.7427 44.396H29.3827C29.4387 44.868 29.5827 45.212 29.8147 45.428C30.0467 45.636 30.3787 45.74 30.8107 45.74C31.0427 45.74 31.2507 45.712 31.4347 45.656C31.6187 45.6 31.8227 45.524 32.0467 45.428C32.1587 45.38 32.2667 45.34 32.3707 45.308C32.4747 45.268 32.5667 45.248 32.6467 45.248ZM30.5827 42.212C30.2387 42.212 29.9627 42.324 29.7547 42.548C29.5467 42.764 29.4227 43.08 29.3827 43.496H31.6987C31.6747 43.072 31.5667 42.752 31.3747 42.536C31.1907 42.32 30.9267 42.212 30.5827 42.212ZM37.8331 40.988C38.0731 40.972 38.2611 41.028 38.3971 41.156C38.5411 41.276 38.6131 41.46 38.6131 41.708C38.6131 41.972 38.5491 42.168 38.4211 42.296C38.2931 42.424 38.0651 42.504 37.7371 42.536L37.3771 42.572C36.9371 42.62 36.6171 42.764 36.4171 43.004C36.2251 43.244 36.1291 43.552 36.1291 43.928V46.22C36.1291 46.5 36.0411 46.712 35.8651 46.856C35.6971 47 35.4851 47.072 35.2291 47.072C34.9651 47.072 34.7451 47 34.5691 46.856C34.4011 46.712 34.3171 46.5 34.3171 46.22V41.816C34.3171 41.552 34.4051 41.348 34.5811 41.204C34.7571 41.06 34.9691 40.988 35.2171 40.988C35.4571 40.988 35.6571 41.06 35.8171 41.204C35.9771 41.34 36.0571 41.532 36.0571 41.78V42.104C36.2011 41.76 36.4171 41.496 36.7051 41.312C37.0011 41.128 37.3211 41.024 37.6651 41L37.8331 40.988ZM41.7403 47.096C41.1323 47.096 40.6003 46.972 40.1443 46.724C39.6883 46.476 39.3363 46.124 39.0883 45.668C38.8483 45.212 38.7283 44.676 38.7283 44.06C38.7283 43.444 38.8563 42.904 39.1123 42.44C39.3763 41.968 39.7443 41.604 40.2163 41.348C40.6883 41.092 41.2323 40.964 41.8483 40.964C42.1683 40.964 42.4883 41.008 42.8083 41.096C43.1363 41.184 43.4283 41.308 43.6843 41.468C43.9323 41.62 44.0563 41.844 44.0563 42.14C44.0563 42.348 44.0083 42.52 43.9123 42.656C43.8163 42.784 43.6883 42.848 43.5283 42.848C43.4243 42.848 43.3243 42.832 43.2283 42.8C43.1403 42.76 43.0203 42.704 42.8683 42.632C42.7003 42.544 42.5483 42.476 42.4123 42.428C42.2843 42.38 42.1363 42.356 41.9683 42.356C41.5203 42.356 41.1763 42.5 40.9363 42.788C40.7043 43.068 40.5883 43.48 40.5883 44.024C40.5883 44.568 40.7043 44.984 40.9363 45.272C41.1763 45.56 41.5203 45.704 41.9683 45.704C42.1363 45.704 42.2843 45.684 42.4123 45.644C42.5403 45.596 42.6963 45.524 42.8803 45.428C43.0323 45.356 43.1523 45.304 43.2403 45.272C43.3283 45.232 43.4243 45.212 43.5283 45.212C43.6803 45.212 43.8043 45.28 43.9003 45.416C44.0043 45.552 44.0563 45.724 44.0563 45.932C44.0563 46.228 43.9323 46.448 43.6843 46.592C43.4283 46.752 43.1323 46.876 42.7963 46.964C42.4603 47.052 42.1083 47.096 41.7403 47.096ZM47.598 40.964C48.462 40.964 49.102 41.176 49.518 41.6C49.934 42.016 50.142 42.656 50.142 43.52V46.232C50.142 46.496 50.066 46.704 49.914 46.856C49.762 47 49.55 47.072 49.278 47.072C49.022 47.072 48.814 46.996 48.654 46.844C48.502 46.684 48.426 46.48 48.426 46.232V46.148C48.306 46.444 48.106 46.676 47.826 46.844C47.546 47.012 47.218 47.096 46.842 47.096C46.442 47.096 46.078 47.016 45.75 46.856C45.43 46.696 45.174 46.472 44.982 46.184C44.798 45.896 44.706 45.576 44.706 45.224C44.706 44.792 44.814 44.452 45.03 44.204C45.254 43.956 45.61 43.776 46.098 43.664C46.586 43.552 47.254 43.496 48.102 43.496H48.414V43.28C48.414 42.944 48.338 42.7 48.186 42.548C48.042 42.396 47.798 42.32 47.454 42.32C47.11 42.32 46.614 42.44 45.966 42.68C45.782 42.768 45.626 42.812 45.498 42.812C45.322 42.812 45.182 42.752 45.078 42.632C44.974 42.504 44.922 42.34 44.922 42.14C44.922 41.98 44.958 41.848 45.03 41.744C45.102 41.64 45.218 41.544 45.378 41.456C45.658 41.304 45.998 41.184 46.398 41.096C46.806 41.008 47.206 40.964 47.598 40.964ZM47.238 45.848C47.59 45.848 47.874 45.732 48.09 45.5C48.306 45.26 48.414 44.952 48.414 44.576V44.372H48.21C47.562 44.372 47.106 44.424 46.842 44.528C46.586 44.632 46.458 44.82 46.458 45.092C46.458 45.316 46.53 45.5 46.674 45.644C46.826 45.78 47.014 45.848 47.238 45.848ZM55.0128 40.988C55.2528 40.972 55.4408 41.028 55.5768 41.156C55.7208 41.276 55.7928 41.46 55.7928 41.708C55.7928 41.972 55.7288 42.168 55.6008 42.296C55.4728 42.424 55.2448 42.504 54.9168 42.536L54.5568 42.572C54.1168 42.62 53.7968 42.764 53.5968 43.004C53.4048 43.244 53.3088 43.552 53.3088 43.928V46.22C53.3088 46.5 53.2208 46.712 53.0448 46.856C52.8768 47 52.6648 47.072 52.4088 47.072C52.1448 47.072 51.9248 47 51.7488 46.856C51.5808 46.712 51.4968 46.5 51.4968 46.22V41.816C51.4968 41.552 51.5848 41.348 51.7608 41.204C51.9368 41.06 52.1488 40.988 52.3968 40.988C52.6368 40.988 52.8368 41.06 52.9968 41.204C53.1568 41.34 53.2368 41.532 53.2368 41.78V42.104C53.3808 41.76 53.5968 41.496 53.8848 41.312C54.1808 41.128 54.5008 41.024 54.8448 41L55.0128 40.988ZM61.224 38.48C61.504 38.48 61.728 38.556 61.896 38.708C62.072 38.86 62.16 39.06 62.16 39.308V46.22C62.16 46.476 62.076 46.684 61.908 46.844C61.748 46.996 61.532 47.072 61.26 47.072C60.988 47.072 60.768 46.996 60.6 46.844C60.44 46.684 60.36 46.476 60.36 46.22V46.124C60.184 46.428 59.932 46.668 59.604 46.844C59.284 47.012 58.92 47.096 58.512 47.096C58.008 47.096 57.556 46.968 57.156 46.712C56.764 46.448 56.456 46.084 56.232 45.62C56.016 45.148 55.908 44.608 55.908 44C55.908 43.392 56.016 42.86 56.232 42.404C56.456 41.94 56.764 41.584 57.156 41.336C57.548 41.088 58 40.964 58.512 40.964C58.912 40.964 59.272 41.048 59.592 41.216C59.92 41.384 60.172 41.62 60.348 41.924V39.272C60.348 39.032 60.428 38.84 60.588 38.696C60.748 38.552 60.96 38.48 61.224 38.48ZM59.04 45.716C59.464 45.716 59.788 45.572 60.012 45.284C60.244 44.988 60.36 44.568 60.36 44.024C60.36 43.48 60.244 43.064 60.012 42.776C59.788 42.488 59.464 42.344 59.04 42.344C58.616 42.344 58.288 42.488 58.056 42.776C57.824 43.056 57.708 43.464 57.708 44C57.708 44.544 57.824 44.968 58.056 45.272C58.288 45.568 58.616 45.716 59.04 45.716Z" fill="#9D9D9D"/>
</svg>
