<svg width="100" height="100" viewBox="0 0 100 100" fill="none" xmlns="http://www.w3.org/2000/svg">
<path d="M72.6875 35.9214C70.3602 35.0801 67.9028 34.6559 65.4281 34.6682C57.4375 34.6682 51.7906 38.7057 51.7563 44.4839C51.6906 48.7307 55.7594 51.1245 58.8344 52.5557C61.9937 54.0214 63.05 54.9339 63.0344 56.2339C63.0187 58.237 60.5094 59.1307 58.2 59.1307C54.9906 59.1307 53.25 58.6932 50.5656 57.5682L49.5688 57.0964L48.4313 63.7714C50.3844 64.5682 53.8844 65.2682 57.4969 65.3339C66.0094 65.3339 71.5594 61.3307 71.6219 55.1589C71.6875 51.7745 69.5094 49.2057 64.8687 47.087C62.0687 45.7214 60.3156 44.7901 60.3156 43.3901C60.3156 42.1526 61.8125 40.8526 64.9375 40.8526C67.0113 40.8007 69.0731 41.1828 70.9906 41.9745L71.7562 42.3151L72.8781 35.887L72.6875 35.9214ZM93.4594 35.2214H87.2094C85.2562 35.2214 83.8062 35.7432 82.9437 37.6807L70.9312 64.9089H79.4281L81.1406 60.4495L91.5062 60.4651C91.7656 61.5057 92.4969 64.9057 92.4969 64.9057H100L93.4594 35.2214ZM40.25 34.9776H48.3406L43.2781 64.6776H35.1875L40.25 34.962V34.9776ZM19.6781 51.3339L20.5062 55.4682L28.4312 35.2214H37.0094L24.2469 64.8589H15.7063L8.70625 39.762C8.65262 39.5535 8.55707 39.3582 8.42544 39.1878C8.2938 39.0175 8.12884 38.8758 7.94062 38.7714C5.4262 37.4636 2.75884 36.4737 0 35.8245L0.096875 35.2026H13.15C14.9094 35.2682 16.3406 35.8245 16.8281 37.712L19.6781 51.3495V51.3339ZM83.4469 54.3776L86.6875 46.062C86.6375 46.1401 87.3531 44.3526 87.7594 43.2276L88.3125 45.7807L90.1875 54.3589H83.4469V54.3776Z" fill="#9D9D9D"/>
</svg>
