<svg width="70" height="70" viewBox="0 0 70 70" fill="none" xmlns="http://www.w3.org/2000/svg">
<path d="M68.7695 68.7695C67.9492 69.5898 66.9694 70 65.8301 70C64.6908 70 63.7109 69.5898 62.8906 68.7695L32.1973 38.0762L25.0195 45.2539V45.3223C25.8398 46.1426 26.25 47.1338 26.25 48.2959C26.25 49.458 25.8398 50.4492 25.0195 51.2695C24.1992 52.0898 23.208 52.5 22.0459 52.5C20.8838 52.5 19.8926 52.0898 19.0723 51.2695L1.23047 33.4277C0.410156 32.6074 0 31.6162 0 30.4541C0 29.292 0.410156 28.3008 1.23047 27.4805C2.05078 26.6602 3.04199 26.25 4.2041 26.25C5.36621 26.25 6.35742 26.6602 7.17773 27.4805L7.24609 27.5488L27.5488 7.24609L27.4805 7.17773C26.6602 6.35742 26.25 5.36621 26.25 4.2041C26.25 3.04199 26.6602 2.05078 27.4805 1.23047C28.3008 0.410156 29.292 0 30.4541 0C31.6162 0 32.6074 0.410156 33.4277 1.23047L51.2695 19.0723C52.0898 19.8926 52.5 20.8838 52.5 22.0459C52.5 23.208 52.0898 24.1992 51.2695 25.0195C50.4492 25.8398 49.458 26.25 48.2959 26.25C47.1338 26.25 46.1426 25.8398 45.3223 25.0195L45.2539 24.9512L38.0762 32.1289L68.7695 62.8906C69.5898 63.7109 70 64.6908 70 65.8301C70 66.9694 69.5898 67.9492 68.7695 68.7695ZM23.0371 17.0898L17.1582 23.0371L29.5312 35.4102L35.4102 29.5312L23.0371 17.0898Z" fill="#1B355B"/>
</svg>
