<svg width="80" height="80" viewBox="0 0 80 80" fill="none" xmlns="http://www.w3.org/2000/svg">
<path d="M70 10H10C8.67432 10.0013 7.40332 10.5285 6.46593 11.4659C5.52853 12.4033 5.00132 13.6743 5 15V65C5.00132 66.3257 5.52853 67.5967 6.46593 68.5341C7.40332 69.4715 8.67432 69.9987 10 70H70C71.3257 69.9987 72.5967 69.4715 73.5341 68.5341C74.4715 67.5967 74.9987 66.3257 75 65V15C74.9987 13.6743 74.4715 12.4033 73.5341 11.4659C72.5967 10.5285 71.3257 10.0013 70 10V10ZM10 15H40V65H10V15Z" fill="#1B355B"/>
</svg>
