<svg width="80" height="80" viewBox="0 0 80 80" fill="none" xmlns="http://www.w3.org/2000/svg">
<g clip-path="url(#clip0)">
<path d="M50 50V42.5C50 39.8478 48.9464 37.3043 47.0711 35.4289C45.1957 33.5536 42.6522 32.5 40 32.5C37.3478 32.5 34.8043 33.5536 32.9289 35.4289C31.0536 37.3043 30 39.8478 30 42.5V50C28.6743 50.0013 27.4033 50.5285 26.4659 51.4659C25.5285 52.4033 25.0013 53.6743 25 55V70C25.0013 71.3257 25.5285 72.5967 26.4659 73.5341C27.4033 74.4715 28.6743 74.9987 30 75H50C51.3257 74.9987 52.5967 74.4715 53.5341 73.5341C54.4715 72.5967 54.9987 71.3257 55 70V55C54.9987 53.6743 54.4715 52.4033 53.5341 51.4659C52.5967 50.5285 51.3257 50.0013 50 50V50ZM35 42.5C35 41.1739 35.5268 39.9021 36.4645 38.9645C37.4021 38.0268 38.6739 37.5 40 37.5C41.3261 37.5 42.5979 38.0268 43.5355 38.9645C44.4732 39.9021 45 41.1739 45 42.5V50H35V42.5ZM30 70V55H50L50.0025 70H30Z" fill="#1B355B"/>
<path d="M64.5734 25.2873C63.6266 20.3763 61.2295 15.8619 57.6917 12.3267C54.1538 8.79155 49.6376 6.39791 44.7259 5.45479C41.4997 4.83136 38.1822 4.84991 34.9631 5.50941C31.7441 6.1689 28.6866 7.4564 25.9654 9.29829C23.2442 11.1402 20.9128 13.5003 19.1044 16.2439C17.2959 18.9874 16.0459 22.0604 15.4259 25.2873C10.8173 26.118 6.68623 28.6428 3.84489 32.3652C1.00356 36.0876 -0.342454 40.7382 0.0715094 45.4027C0.485473 50.0673 2.62946 54.4082 6.08193 57.572C9.53439 60.7358 14.0455 62.4936 18.7284 62.4998H20.0009V57.4998H18.7384C15.3055 57.4935 11.9989 56.2038 9.46844 53.8839C6.93794 51.564 5.36639 48.3818 5.06253 44.9623C4.75867 41.5428 5.74448 38.1333 7.82627 35.4036C9.90806 32.6739 12.9354 30.8213 16.3134 30.2098L19.6884 29.5973L20.3359 26.2348C21.2159 21.6648 23.6602 17.5441 27.2487 14.5807C30.8371 11.6173 35.3457 9.99629 39.9997 9.99629C44.6536 9.99629 49.1622 11.6173 52.7507 14.5807C56.3391 17.5441 58.7834 21.6648 59.6634 26.2348L60.3109 29.5973L63.6834 30.2098C67.0604 30.8211 70.087 32.6727 72.1688 35.4011C74.2505 38.1295 75.2372 41.5375 74.935 44.9561C74.6328 48.3747 73.0635 51.5568 70.5354 53.8776C68.0072 56.1985 64.7028 57.4904 61.2709 57.4998H60.0009V62.4998H61.2709C65.9536 62.493 70.4643 60.7348 73.9163 57.5708C77.3683 54.4068 79.5118 50.0659 79.9254 45.4015C80.3391 40.7372 78.9929 36.0868 76.1516 32.3647C73.3102 28.6426 69.1793 26.118 64.5709 25.2873H64.5734Z" fill="#1B355B"/>
</g>
<defs>
<clipPath id="clip0">
<rect width="80" height="80" fill="white"/>
</clipPath>
</defs>
</svg>
