<svg width="80" height="80" viewBox="0 0 80 80" fill="none" xmlns="http://www.w3.org/2000/svg">
<path d="M71.112 13.3334H8.88976C7.71102 13.3334 6.58055 13.8016 5.74706 14.6351C4.91356 15.4686 4.44531 16.5991 4.44531 17.7778V62.2223C4.44531 63.401 4.91356 64.5315 5.74706 65.365C6.58055 66.1985 7.71102 66.6667 8.88976 66.6667H42.2231L43.4898 65.1111L45.5564 62.5778L45.3564 62.2223H8.88976V17.7778H71.112V36.8C72.8002 37.8929 74.301 39.2511 75.5564 40.8223V17.7778C75.5564 16.5991 75.0882 15.4686 74.2547 14.6351C73.4212 13.8016 72.2907 13.3334 71.112 13.3334V13.3334Z" fill="#1B355B"/>
<path d="M15.5547 26.6666H53.3325V30.2222H15.5547V26.6666Z" fill="#1B355B"/>
<path d="M15.5547 35.5555H39.9991V39.1111H15.5547V35.5555Z" fill="#1B355B"/>
<path d="M15.5547 51.1111H37.7769V54.6666H15.5547V51.1111Z" fill="#1B355B"/>
<path d="M61.0229 38.2888C58.1792 38.2662 55.3948 39.102 53.0337 40.6869C50.6725 42.2719 48.8444 44.5323 47.7882 47.1727C46.7321 49.8131 46.497 52.7107 47.1137 55.4868C47.7305 58.2629 49.1703 60.7884 51.2451 62.7332L46.934 67.9999L48.934 76.0221L57.0674 66.111C59.6419 66.8722 62.3817 66.8722 64.9562 66.111L73.0896 76.0221L75.0896 67.9999L70.7785 62.7332C72.8533 60.7884 74.2931 58.2629 74.9099 55.4868C75.5266 52.7107 75.2915 49.8131 74.2354 47.1727C73.1792 44.5323 71.3511 42.2719 68.9899 40.6869C66.6288 39.102 63.8444 38.2662 61.0007 38.2888H61.0229ZM61.0229 62.0221C59.1345 61.9958 57.296 61.4118 55.7386 60.3435C54.1812 59.2753 52.9743 57.7704 52.2698 56.0181C51.5653 54.2659 51.3946 52.3444 51.779 50.4954C52.1635 48.6464 53.0861 46.9523 54.4307 45.6261C55.7753 44.2999 57.482 43.4009 59.3362 43.042C61.1904 42.6831 63.1093 42.8804 64.8516 43.6091C66.594 44.3378 68.082 45.5653 69.1287 47.1373C70.1753 48.7094 70.7338 50.5557 70.734 52.4443C70.7105 55.0004 69.6756 57.4431 67.8557 59.238C66.0358 61.0329 63.579 62.034 61.0229 62.0221V62.0221Z" fill="#1B355B"/>
</svg>
