<svg width="80" height="80" viewBox="0 0 80 80" fill="none" xmlns="http://www.w3.org/2000/svg">
<path d="M61.4291 5.71423C64.9708 5.71423 67.9991 6.97167 70.5139 9.48655C73.0288 12.0014 74.2863 15.0297 74.2863 18.5714V61.4285C74.2863 64.9702 73.0288 67.9985 70.5139 70.5133C67.9991 73.0282 64.9708 74.2857 61.4291 74.2857H53.0363V47.7232H61.9202L63.2595 37.366H53.0363V30.7589C53.0363 29.0922 53.386 27.8422 54.0854 27.0089C54.7848 26.1755 56.1464 25.7589 58.1702 25.7589L63.6166 25.7142V16.4732C61.7416 16.2053 59.0928 16.0714 55.6702 16.0714C51.6226 16.0714 48.386 17.2619 45.9604 19.6428C43.5348 22.0238 42.322 25.3868 42.322 29.7321V37.366H33.3934V47.7232H42.322V74.2857H18.572C15.0303 74.2857 12.002 73.0282 9.48716 70.5133C6.97228 67.9985 5.71484 64.9702 5.71484 61.4285V18.5714C5.71484 15.0297 6.97228 12.0014 9.48716 9.48655C12.002 6.97167 15.0303 5.71423 18.572 5.71423H61.4291Z" fill="#1B355B"/>
</svg>
