<svg width="80" height="80" viewBox="0 0 80 80" fill="none" xmlns="http://www.w3.org/2000/svg">
<g clip-path="url(#clip0)">
<path fill-rule="evenodd" clip-rule="evenodd" d="M49.1411 20H10.9511C10.2565 20 9.56954 20.1446 8.93398 20.4248C8.29842 20.705 7.7282 21.1145 7.25967 21.6272C6.79115 22.14 6.43459 22.7447 6.21272 23.4029C5.99086 24.0611 5.90856 24.7582 5.97107 25.45L9.15607 60.45C9.26834 61.6923 9.8409 62.8478 10.7614 63.6896C11.6818 64.5314 12.8837 64.9988 14.1311 65H45.0011V70H14.1311C11.6363 69.999 9.23192 69.0655 7.39006 67.3828C5.5482 65.7 4.40185 63.3896 4.17607 60.905L0.991073 25.905C0.778004 23.5889 1.38304 21.2714 2.70107 19.355L2.50107 15C2.50107 12.3478 3.55464 9.8043 5.43001 7.92893C7.30537 6.05357 9.84891 5 12.5011 5H30.8611C33.513 5.00057 36.0561 6.05451 37.9311 7.93L42.0711 12.07C43.946 13.9455 46.4891 14.9994 49.1411 15H69.0511C70.4407 14.9999 71.8151 15.2893 73.0865 15.85C74.358 16.4106 75.4987 17.2301 76.4359 18.2561C77.373 19.2822 78.086 20.4923 78.5294 21.8092C78.9728 23.1262 79.1368 24.5211 79.0111 25.905L77.7311 40H72.7011L74.0261 25.45C74.0885 24.7587 74.0064 24.0619 73.7848 23.4041C73.5633 22.7462 73.2071 22.1417 72.7392 21.6291C72.2712 21.1164 71.7016 20.7068 71.0666 20.4263C70.4316 20.1458 69.7452 20.0007 69.0511 20H49.1411ZM34.3911 11.465L37.9361 15H10.9511C9.75107 15 8.60107 15.21 7.53107 15.6L7.50107 14.9C7.52725 13.5913 8.06557 12.3451 9.00043 11.4289C9.93529 10.5128 11.1921 9.99974 12.5011 10H30.8611C32.187 10.0003 33.4586 10.5273 34.3961 11.465H34.3911Z" fill="#1B355B"/>
<path fill-rule="evenodd" clip-rule="evenodd" d="M79.2712 50.7302C79.504 50.9624 79.6887 51.2383 79.8148 51.542C79.9408 51.8458 80.0057 52.1714 80.0057 52.5002C80.0057 52.829 79.9408 53.1546 79.8148 53.4584C79.6887 53.7621 79.504 54.038 79.2712 54.2702L64.2712 69.2702C64.039 69.503 63.7631 69.6877 63.4594 69.8138C63.1556 69.9398 62.83 70.0047 62.5012 70.0047C62.1724 70.0047 61.8468 69.9398 61.543 69.8138C61.2393 69.6877 60.9634 69.503 60.7312 69.2702L53.2312 61.7702C52.9988 61.5378 52.8144 61.2618 52.6886 60.9581C52.5628 60.6544 52.498 60.3289 52.498 60.0002C52.498 59.6715 52.5628 59.346 52.6886 59.0423C52.8144 58.7386 52.9988 58.4626 53.2312 58.2302C53.4636 57.9978 53.7396 57.8134 54.0433 57.6876C54.347 57.5618 54.6725 57.497 55.0012 57.497C55.3299 57.497 55.6554 57.5618 55.9591 57.6876C56.2628 57.8134 56.5388 57.9978 56.7712 58.2302L62.5012 63.9652L75.7312 50.7302C75.9634 50.4974 76.2393 50.3127 76.543 50.1866C76.8468 50.0606 77.1724 49.9957 77.5012 49.9957C77.83 49.9957 78.1556 50.0606 78.4594 50.1866C78.7631 50.3127 79.039 50.4974 79.2712 50.7302V50.7302Z" fill="#1B355B"/>
</g>
<defs>
<clipPath id="clip0">
<rect width="80" height="80" fill="white"/>
</clipPath>
</defs>
</svg>
