<svg width="60" height="60" viewBox="0 0 60 60" fill="none" xmlns="http://www.w3.org/2000/svg">
<path d="M53.3335 10H6.66683C5.78277 10 4.93493 10.3512 4.30981 10.9763C3.68469 11.6014 3.3335 12.4493 3.3335 13.3333V46.6667C3.3335 47.5507 3.68469 48.3986 4.30981 49.0237C4.93493 49.6488 5.78277 50 6.66683 50H31.6668L32.6168 48.8333L34.1668 46.9333L34.0168 46.6667H6.66683V13.3333H53.3335V27.6C54.5997 28.4197 55.7253 29.4383 56.6668 30.6167V13.3333C56.6668 12.4493 56.3156 11.6014 55.6905 10.9763C55.0654 10.3512 54.2175 10 53.3335 10Z" fill="#1B355B"/>
<path d="M11.6665 20H39.9998V22.6667H11.6665V20Z" fill="#1B355B"/>
<path d="M11.6665 26.6666H29.9998V29.3333H11.6665V26.6666Z" fill="#1B355B"/>
<path d="M11.6665 38.3333H28.3332V41H11.6665V38.3333Z" fill="#1B355B"/>
<path d="M45.7667 28.7166C43.6339 28.6996 41.5456 29.3265 39.7748 30.5152C38.0039 31.7039 36.6328 33.3992 35.8407 35.3795C35.0486 37.3598 34.8722 39.533 35.3348 41.6151C35.7974 43.6972 36.8773 45.5913 38.4334 47.0499L35.2 50.9999L36.7 57.0166L42.8 49.5832C44.7309 50.1542 46.7858 50.1542 48.7167 49.5832L54.8167 57.0166L56.3167 50.9999L53.0834 47.0499C54.6395 45.5913 55.7194 43.6972 56.1819 41.6151C56.6445 39.533 56.4682 37.3598 55.676 35.3795C54.8839 33.3992 53.5128 31.7039 51.742 30.5152C49.9711 29.3265 47.8828 28.6996 45.75 28.7166H45.7667ZM45.7667 46.5166C44.3504 46.4969 42.9715 46.0589 41.8035 45.2577C40.6354 44.4565 39.7303 43.3278 39.2019 42.0136C38.6735 40.6994 38.5454 39.2583 38.8338 37.8716C39.1222 36.4848 39.8141 35.2142 40.8225 34.2196C41.831 33.2249 43.111 32.5507 44.5017 32.2815C45.8923 32.0123 47.3315 32.1603 48.6382 32.7068C49.945 33.2533 51.061 34.174 51.846 35.353C52.631 36.532 53.0499 37.9168 53.05 39.3332C53.0324 41.2503 52.2562 43.0823 50.8913 44.4285C49.5264 45.7747 47.6838 46.5255 45.7667 46.5166Z" fill="#1B355B"/>
</svg>
