<svg width="60" height="60" viewBox="0 0 60 60" fill="none" xmlns="http://www.w3.org/2000/svg">
<path d="M29.9756 5C16.1756 5 4.97559 16.2 4.97559 30C4.97559 43.8 16.1756 55 29.9756 55C43.7756 55 54.9756 43.8 54.9756 30C54.9756 16.2 43.7756 5 29.9756 5ZM39.0006 20.85C41.6756 20.85 43.8256 23 43.8256 25.675C43.8256 28.35 41.6756 30.5 39.0006 30.5C36.3256 30.5 34.1756 28.35 34.1756 25.675C34.1506 23 36.3256 20.85 39.0006 20.85ZM24.0006 16.9C27.2506 16.9 29.9006 19.55 29.9006 22.8C29.9006 26.05 27.2506 28.7 24.0006 28.7C20.7506 28.7 18.1006 26.05 18.1006 22.8C18.1006 19.525 20.7256 16.9 24.0006 16.9ZM24.0006 39.725V49.1C18.0006 47.225 13.2506 42.6 11.1506 36.7C13.7756 33.9 20.3256 32.475 24.0006 32.475C25.3256 32.475 27.0006 32.675 28.7506 33.025C24.6506 35.2 24.0006 38.075 24.0006 39.725ZM29.9756 50C29.3006 50 28.6506 49.975 28.0006 49.9V39.725C28.0006 36.175 35.3506 34.4 39.0006 34.4C41.6756 34.4 46.3006 35.375 48.6006 37.275C45.6756 44.7 38.4506 50 29.9756 50Z" fill="#1B355B"/>
</svg>
