<svg width="1440" height="428" viewBox="0 0 1440 428" fill="none" xmlns="http://www.w3.org/2000/svg">
<path fill-rule="evenodd" clip-rule="evenodd" d="M0 105.6L60 133.267C120 160.933 240 216.267 360 216.267C480 216.267 600 160.933 720 116.667C840 72.4 960 39.2 1080 22.6C1200 6 1320 6 1380 6H1440V338H1380C1320 338 1200 338 1080 338C960 338 840 338 720 338C600 338 480 338 360 338C240 338 120 338 60 338H0V105.6Z" fill="#D1E2F9"/>
<path fill-rule="evenodd" clip-rule="evenodd" d="M0 0L60 44.3136C120 87.7583 240 175.517 360 212.879C480 250.242 600 238.077 720 212.879C840 187.681 960 150.319 1080 138.154C1200 125.121 1320 138.154 1380 144.236L1440 150.319V338H1380C1320 338 1200 338 1080 338C960 338 840 338 720 338C600 338 480 338 360 338C240 338 120 338 60 338H0V0Z" fill="#E0EDFE" fill-opacity="0.6"/>
<rect y="313" width="1440" height="115" fill="#DBE8FC"/>
</svg>
