<svg width="545" height="517" viewBox="0 0 545 517" fill="none" xmlns="http://www.w3.org/2000/svg">
<path fill-rule="evenodd" clip-rule="evenodd" d="M248.433 7.60976C298.263 16.7811 329.213 62.704 373.697 86.9608C428.241 116.704 511.661 108.981 537.741 165.369C563.411 220.871 513.471 281.422 489.695 337.762C468.168 388.774 450.867 443.803 406.349 476.723C361.63 509.792 303.902 520.223 248.433 516.171C195.718 512.32 149.37 485.642 106.435 454.814C63.2657 423.818 12.2939 391.554 2.20202 339.376C-7.68496 288.258 43.0404 247.309 56.5773 197.033C71.2952 142.372 44.2149 73.5055 84.4977 33.7333C124.862 -6.119 192.647 -2.65768 248.433 7.60976Z" fill="#799DD2" fill-opacity="0.34"/>
</svg>
