<svg width="1440" height="321" viewBox="0 0 1440 321" fill="none" xmlns="http://www.w3.org/2000/svg">
<path fill-rule="evenodd" clip-rule="evenodd" d="M0 100.5L60 126.75C120 153 240 205.5 360 205.5C480 205.5 600 153 720 111C840 69 960 37.5 1080 21.75C1200 6 1320 6 1380 6H1440V321H1380C1320 321 1200 321 1080 321C960 321 840 321 720 321C600 321 480 321 360 321C240 321 120 321 60 321H0V100.5Z" fill="#D1E2F9"/>
<path fill-rule="evenodd" clip-rule="evenodd" d="M0 0L60 42.0848C120 83.3445 240 166.689 360 202.172C480 237.656 600 226.103 720 202.172C840 178.242 960 142.758 1080 131.206C1200 118.828 1320 131.206 1380 136.982L1440 142.758V321H1380C1320 321 1200 321 1080 321C960 321 840 321 720 321C600 321 480 321 360 321C240 321 120 321 60 321H0V0Z" fill="#E0EDFE" fill-opacity="0.6"/>
</svg>
