<svg width="1440" height="347" viewBox="0 0 1440 347" fill="none" xmlns="http://www.w3.org/2000/svg">
<path fill-rule="evenodd" clip-rule="evenodd" d="M0 130.346L60 116.346C120 101.346 240 72.3462 360 51.3462C480 29.3462 600 15.3462 720 36.3462C840 58.3462 960 116.346 1080 123.346C1200 130.346 1320 87.3462 1380 65.3462L1440 44.3462V346.346H1380C1320 346.346 1200 346.346 1080 346.346C960 346.346 840 346.346 720 346.346C600 346.346 480 346.346 360 346.346C240 346.346 120 346.346 60 346.346H0V130.346Z" fill="#E3EFE7"/>
<path fill-rule="evenodd" clip-rule="evenodd" d="M0 216L60 231C120 245 240 274 360 281C480 288 600 274 720 238C840 202 960 144 1080 101C1200 58 1320 29 1380 15L1440 0V346H1380C1320 346 1200 346 1080 346C960 346 840 346 720 346C600 346 480 346 360 346C240 346 120 346 60 346H0V216Z" fill="#8BBC99" fill-opacity="0.4"/>
</svg>
